<svg xmlns="http://www.w3.org/2000/svg" width="383.83392333984375" height="350.0428466796875" viewBox="-76.9345703125 -81.53234100341797 383.83392333984375 350.0428466796875"><title>Neo4j Graph Visualization</title><desc>Created using Neo4j (http://www.neo4j.com/)</desc><g class="layer relationships"><g class="relationship" transform="translate(28.122302399409925 -10.020741864300355) rotate(380.1970196535244)"><path class="outline" fill="#A5ABB6" stroke="none" d="M 24.018736134675446,-6.953439040707552 L 24.277555179777966,-5.987513214418485 A 147.48004814436837 147.48004814436837 0 0 1 50.84250277091183,-10.555419277761587 L 50.76380943044109,-11.552318148342522 A 148.48004814436837 148.48004814436837 0 0 0 24.018736134675446,-6.953439040707552 Z M 70.14952928883199,-11.81291410964215 L 70.0976615195734,-10.814260148296114 A 147.48004814436837 147.48004814436837 0 0 1 96.77579755710939,-6.962083635473857 L 96.07751468610037,-4.044481703740296 L 103.69991587632254,-5.8190239250750935 L 97.7068413851214,-10.85221954445194 L 97.00855851411238,-7.934617612718378 A 148.48004814436837 148.48004814436837 0 0 0 70.14952928883199,-11.81291410964215"/><text text-anchor="middle" pointer-events="none" font-size="8px" fill="#000000" x="60.45913220223713" y="-8.49940539743568" font-family="sans-serif">trek</text></g><g class="relationship" transform="translate(148.26415783677643 34.17575875213782) rotate(375.8434389103677)"><path class="outline" fill="#A5ABB6" stroke="none" d="M 21.40063509461097,-12.933012701892217 L 21.90063509461097,-12.06698729810778 A 87.99213129037659 87.99213129037659 0 0 1 54.13209598434266,-23.06568346640644 L 53.99839533880843,-24.056705230740462 A 88.99213129037659 88.99213129037659 0 0 0 21.40063509461097,-12.933012701892217 Z M 73.39893340484772,-24.53890633814295 L 73.3146312024365,-23.5424661047779 A 87.99213129037659 87.99213129037659 0 0 1 106.0527016945366,-14.158590096265458 L 104.6836246975644,-11.489202867637585 L 112.50945139416366,-11.408974974768311 L 107.87813769049953,-17.717773067769286 L 106.50906069352733,-15.048385839141416 A 88.99213129037659 88.99213129037659 0 0 0 73.39893340484772,-24.53890633814295"/><text text-anchor="middle" pointer-events="none" font-size="8px" fill="#000000" x="63.69790454310463" y="-21.328376195514423" font-family="sans-serif">trek</text></g><g class="relationship" transform="translate(277.8993586925453 70.96499884101519) rotate(217.81432922080137)"><path class="outline" fill="#A5ABB6" stroke="none" d="M 21.40063509461097,12.933012701892217 L 21.90063509461097,12.06698729810778 A 44.40092587444531 44.40092587444531 0 0 0 33.08137320432392,16.626375515137134 L 32.83318637915116,17.595087701398185 A 45.40092587444531 45.40092587444531 0 0 1 21.40063509461097,12.933012701892217 Z M 52.22150296340287,18.283473216494556 L 52.042643066271566,17.29959866290646 A 44.40092587444531 44.40092587444531 0 0 0 63.51858350215098,13.544639714566108 L 62.206618599083974,10.846724205674034 L 70.03238050674365,10.933040858891765 L 65.26787003957367,17.14186039308887 L 63.95590513650665,14.443944884196798 A 45.40092587444531 45.40092587444531 0 0 1 52.22150296340287,18.283473216494556"/><text text-anchor="middle" pointer-events="none" font-size="8px" fill="#000000" x="42.50788683421073" y="21.487308703022826" transform="rotate(180 42.50788683421073 18.487308703022826)" font-family="sans-serif">trek</text></g><g class="relationship" transform="translate(204.81234330337023 14.243616540470596) rotate(466.72842980706577)"><path class="outline" fill="#A5ABB6" stroke="none" d="M 25 0.5 L 59.9685113424472 0.5 L 59.9685113424472 -0.5 L 25 -0.5 Z M 79.3044488424472 0.5 L 114.2729601848944 0.5 L 114.2729601848944 3.5 L 121.2729601848944 0 L 114.2729601848944 -3.5 L 114.2729601848944 -0.5 L 79.3044488424472 -0.5 Z"/><text text-anchor="middle" pointer-events="none" font-size="8px" fill="#000000" x="69.6364800924472" y="3" transform="rotate(180 69.6364800924472 0)" font-family="sans-serif">trek</text></g><g class="relationship" transform="translate(277.8993586925453 70.96499884101519) rotate(217.81432922080137)"><path class="outline" fill="#A5ABB6" stroke="none" d="M 25 0.5 L 26.644223623755487 0.5 L 26.644223623755487 -0.5 L 25 -0.5 Z M 58.87078612375549 0.5 L 60.51500974751097 0.5 L 60.51500974751097 3.5 L 67.51500974751097 0 L 60.51500974751097 -3.5 L 60.51500974751097 -0.5 L 58.87078612375549 -0.5 Z"/><text text-anchor="middle" pointer-events="none" font-size="8px" fill="#000000" x="42.75750487375549" y="3" transform="rotate(180 42.75750487375549 0)" font-family="sans-serif">twow…</text></g><g class="relationship" transform="translate(277.8993586925453 70.96499884101519) rotate(217.81432922080137)"><path class="outline" fill="#A5ABB6" stroke="none" d="M 21.40063509461097,-12.933012701892217 L 21.90063509461097,-12.06698729810778 A 44.40092587444531 44.40092587444531 0 0 1 31.80485547098287,-16.278982652815102 L 31.52791884593092,-17.239870838664444 A 45.40092587444531 45.40092587444531 0 0 0 21.40063509461097,-12.933012701892217 Z M 53.54867606819169,-18.02172161139068 L 53.340583879444594,-17.0436123940829 A 44.40092587444531 44.40092587444531 0 0 1 63.51858350215098,-13.544639714566108 L 62.206618599083974,-10.846724205674034 L 70.03238050674365,-10.933040858891765 L 65.26787003957367,-17.14186039308887 L 63.95590513650665,-14.443944884196798 A 45.40092587444531 45.40092587444531 0 0 0 53.54867606819169,-18.02172161139068"/><text text-anchor="middle" pointer-events="none" font-size="8px" fill="#000000" x="42.50788683421073" y="-15.487308703022826" transform="rotate(180 42.50788683421073 -18.487308703022826)" font-family="sans-serif">road</text></g><g class="relationship" transform="translate(148.26415783677643 34.17575875213782) rotate(375.8434389103677)"><path class="outline" fill="#A5ABB6" stroke="none" d="M 25 0.5 L 52.8713131080313 0.5 L 52.8713131080313 -0.5 L 25 -0.5 Z M 74.8830318580313 0.5 L 102.7543449660626 0.5 L 102.7543449660626 3.5 L 109.7543449660626 0 L 102.7543449660626 -3.5 L 102.7543449660626 -0.5 L 74.8830318580313 -0.5 Z"/><text text-anchor="middle" pointer-events="none" font-size="8px" fill="#000000" x="63.8771724830313" y="3" font-family="sans-serif">road</text></g><g class="relationship" transform="translate(148.26415783677643 34.17575875213782) rotate(375.8434389103677)"><path class="outline" fill="#A5ABB6" stroke="none" d="M 21.40063509461097,12.933012701892217 L 21.90063509461097,12.06698729810778 A 87.99213129037659 87.99213129037659 0 0 0 40.95560509709194,20.246958692581003 L 40.67215821068341,21.205946629202373 A 88.99213129037659 88.99213129037659 0 0 1 21.40063509461097,12.933012701892217 Z M 86.85033945627929,22.35370707062218 L 86.61488449624345,21.381821808981414 A 87.99213129037659 87.99213129037659 0 0 0 106.0527016945366,14.158590096265458 L 104.6836246975644,11.489202867637585 L 112.50945139416366,11.408974974768311 L 107.87813769049953,17.717773067769286 L 106.50906069352733,15.048385839141416 A 88.99213129037659 88.99213129037659 0 0 1 86.85033945627929,22.35370707062218"/><text text-anchor="middle" pointer-events="none" font-size="8px" fill="#000000" x="63.69790454310466" y="27.328376195514423" font-family="sans-serif">twowheeler</text></g><g class="relationship" transform="translate(28.122302399409925 -10.020741864300355) rotate(380.1970196535244)"><path class="outline" fill="#A5ABB6" stroke="none" d="M 24.018736134675446,6.953439040707552 L 24.277555179777966,5.987513214418485 A 147.48004814436837 147.48004814436837 0 0 0 49.51376003983594,10.444484578661758 L 49.4260570553639,11.440631247839889 A 148.48004814436837 148.48004814436837 0 0 1 24.018736134675446,6.953439040707552 Z M 71.48980047193484,11.737227013563825 L 71.42890609472555,10.739082798119853 A 147.48004814436837 147.48004814436837 0 0 0 96.77579755710939,6.962083635473857 L 96.07751468610037,4.044481703740296 L 103.69991587632254,5.8190239250750935 L 97.7068413851214,10.85221954445194 L 97.00855851411238,7.934617612718378 A 148.48004814436837 148.48004814436837 0 0 1 71.48980047193484,11.737227013563825"/><text text-anchor="middle" pointer-events="none" font-size="8px" fill="#000000" x="60.459132202237164" y="14.49940539743568" font-family="sans-serif">road</text></g><g class="relationship" transform="translate(28.122302399409925 -10.020741864300355) rotate(328.99727817428607)"><path class="outline" fill="#A5ABB6" stroke="none" d="M 21.40063509461097,12.933012701892217 L 21.90063509461097,12.06698729810778 A 33.89853728621539 33.89853728621539 0 0 0 22.551855699564708,12.43345934894159 L 22.07106657581743,13.310295604171905 A 34.89853728621539 34.89853728621539 0 0 1 21.40063509461097,12.933012701892217 Z M 53.16248735737554,14.538562646652451 L 52.75236748609629,13.626531018263453 A 33.89853728621539 33.89853728621539 0 0 0 53.43046845806177,13.31257383618588 L 52.14009731928061,10.604263971306935 L 59.96491999924284,10.753092823176333 L 55.15096330976998,16.923653656024474 L 53.860592170988824,14.215343791145528 A 34.89853728621539 34.89853728621539 0 0 1 53.16248735737554,14.538562646652451"/><text text-anchor="middle" pointer-events="none" font-size="8px" fill="#000000" x="37.492048161310116" y="20.08171954729611" font-family="sans-serif">Publi…</text></g><g class="relationship" transform="translate(98.86587372206745 -52.53234202368729) rotate(494.2141410171576)"><path class="outline" fill="#A5ABB6" stroke="none" d="M 24.018736134675446,-6.953439040707552 L 24.277555179777966,-5.987513214418485 A 192.84128397050154 192.84128397050154 0 0 1 62.33883185935825,-12.194005216935892 L 62.27738381229059,-13.192115500176953 A 193.84128397050154 193.84128397050154 0 0 0 24.018736134675446,-6.953439040707552 Z M 81.65397065084748,-13.414609268990347 L 81.6154576037578,-12.415351171598132 A 192.84128397050154 192.84128397050154 0 0 1 119.80921347466753,-7.084465885810878 L 119.09950038239816,-4.169623295436324 L 126.72879836758639,-5.914275768911433 L 120.75549759769336,-10.97092267297695 L 120.045784505424,-8.056080082602396 A 193.84128397050154 193.84128397050154 0 0 0 81.65397065084748,-13.414609268990347"/><text text-anchor="middle" pointer-events="none" font-size="8px" fill="#000000" x="71.96863614550443" y="-10.045675829482406" transform="rotate(180 71.96863614550443 -13.045675829482406)" font-family="sans-serif">trek</text></g><g class="relationship" transform="translate(-6.44612775001219 55.70890245169812) rotate(420.3939149605809)"><path class="outline" fill="#A5ABB6" stroke="none" d="M 24.018736134675446,-6.953439040707552 L 24.277555179777966,-5.987513214418485 A 116.06182317784209 116.06182317784209 0 0 1 42.94077123694099,-9.383379535745902 L 42.8427562835385,-10.378564477809192 A 117.06182317784209 117.06182317784209 0 0 0 24.018736134675446,-6.953439040707552 Z M 62.23712944049474,-10.673958423130458 L 62.16946806466825,-9.676250079865127 A 116.06182317784209 116.06182317784209 0 0 1 80.92744739640577,-6.850342604596104 L 80.23960152494884,-3.9302624589289255 L 87.85560871487202,-5.732048928807789 L 81.84457522501502,-10.743782798819009 L 81.15672935355809,-7.82370265315183 A 117.06182317784209 117.06182317784209 0 0 0 62.23712944049474,-10.673958423130458"/><text text-anchor="middle" pointer-events="none" font-size="8px" fill="#000000" x="52.54142871647529" y="-7.428706249069265" font-family="sans-serif">trek</text></g><g class="relationship" transform="translate(48.9793772937138 153.2513135692033) rotate(360.54153415555817)"><path class="outline" fill="#A5ABB6" stroke="none" d="M 24.018736134675446,6.953439040707552 L 24.277555179777966,5.987513214418485 A 119.14155645790972 119.14155645790972 0 0 0 43.71234832990573,9.500381559405824 L 43.61665283067525,10.495792214074058 A 120.14155645790972 120.14155645790972 0 0 1 24.018736134675446,6.953439040707552 Z M 63.01008147097276,10.787382364601854 L 62.94435548364966,9.789544655056659 A 119.14155645790972 119.14155645790972 0 0 0 82.47597518328442,6.8625563212387695 L 81.78698847849743,3.94274514230497 L 89.40369905159444,5.741555873224794 L 83.39462412300038,10.755637893150503 L 82.7056374182134,7.8358267142167035 A 120.14155645790972 120.14155645790972 0 0 1 63.01008147097276,10.787382364601854"/><text text-anchor="middle" pointer-events="none" font-size="8px" fill="#000000" x="53.31499016191323" y="13.533642114631817" font-family="sans-serif">trek</text></g><g class="relationship" transform="translate(48.9793772937138 153.2513135692033) rotate(360.54153415555817)"><path class="outline" fill="#A5ABB6" stroke="none" d="M 24.018736134675446,-6.953439040707552 L 24.277555179777966,-5.987513214418485 A 119.14155645790972 119.14155645790972 0 0 1 30.368559985093675,-7.449120383255433 L 30.160865039645397,-8.427314029541918 A 120.14155645790972 120.14155645790972 0 0 0 24.018736134675446,-6.953439040707552 Z M 76.52197403044215,-9.124377091468617 L 76.34378160804165,-8.140381430604677 A 119.14155645790972 119.14155645790972 0 0 1 82.47597518328442,-6.8625563212387695 L 81.78698847849743,-3.94274514230497 L 89.40369905159444,-5.741555873224794 L 83.39462412300038,-10.755637893150503 L 82.7056374182134,-7.8358267142167035 A 120.14155645790972 120.14155645790972 0 0 0 76.52197403044215,-9.124377091468617"/><text text-anchor="middle" pointer-events="none" font-size="8px" fill="#000000" x="53.31499016191322" y="-7.533642114631817" font-family="sans-serif">twowheeler</text></g><g class="relationship" transform="translate(-6.44612775001219 55.70890245169812) rotate(420.3939149605809)"><path class="outline" fill="#A5ABB6" stroke="none" d="M 24.018736134675446,6.953439040707552 L 24.277555179777966,5.987513214418485 A 116.06182317784209 116.06182317784209 0 0 0 29.606794427397688,7.281344392119195 L 29.393892627963915,8.258417994156346 A 117.06182317784209 117.06182317784209 0 0 1 24.018736134675446,6.953439040707552 Z M 75.7443233325128,8.96437721657368 L 75.56127682492139,7.981272961645146 A 116.06182317784209 116.06182317784209 0 0 0 80.92744739640577,6.850342604596104 L 80.23960152494884,3.9302624589289255 L 87.85560871487202,5.732048928807789 L 81.84457522501502,10.743782798819009 L 81.15672935355809,7.82370265315183 A 117.06182317784209 117.06182317784209 0 0 1 75.7443233325128,8.96437721657368"/><text text-anchor="middle" pointer-events="none" font-size="8px" fill="#000000" x="52.54142871647532" y="13.428706249069279" font-family="sans-serif">twowheeler</text></g><g class="relationship" transform="translate(98.86587372206745 -52.53234202368729) rotate(494.2141410171576)"><path class="outline" fill="#A5ABB6" stroke="none" d="M 24.018736134675446,6.953439040707552 L 24.277555179777966,5.987513214418485 A 192.84128397050154 192.84128397050154 0 0 0 48.87525083379251,10.88982711774824 L 48.743985884719436,11.881174439903731 A 193.84128397050154 193.84128397050154 0 0 1 24.018736134675446,6.953439040707552 Z M 95.21390236159039,12.414770317213112 L 95.10543552842896,11.420670248757261 A 192.84128397050154 192.84128397050154 0 0 0 119.80921347466753,7.084465885810878 L 119.09950038239816,4.169623295436324 L 126.72879836758639,5.914275768911433 L 120.75549759769336,10.97092267297695 L 120.045784505424,8.056080082602396 A 193.84128397050154 193.84128397050154 0 0 1 95.21390236159039,12.414770317213112"/><text text-anchor="middle" pointer-events="none" font-size="8px" fill="#000000" x="71.9686361455045" y="16.045675829482406" transform="rotate(180 71.9686361455045 13.045675829482406)" font-family="sans-serif">twowheeler</text></g><g class="relationship" transform="translate(98.86587372206745 -52.53234202368729) rotate(392.22241771655075)"><path class="outline" fill="#A5ABB6" stroke="none" d="M 25 0.5 L 49.44928737581576 0.5 L 49.44928737581576 -0.5 L 25 -0.5 Z M 68.78522487581576 0.5 L 93.23451225163151 0.5 L 93.23451225163151 3.5 L 100.23451225163151 0 L 93.23451225163151 -3.5 L 93.23451225163151 -0.5 L 68.78522487581576 -0.5 Z"/><text text-anchor="middle" pointer-events="none" font-size="8px" fill="#000000" x="59.11725612581576" y="3" font-family="sans-serif">trek</text></g><g class="relationship" transform="translate(28.122302399409925 -10.020741864300355) rotate(328.99727817428607)"><path class="outline" fill="#A5ABB6" stroke="none" d="M 25 0.5 L 26.761225061617033 0.5 L 26.761225061617033 -0.5 L 25 -0.5 Z M 48.77294381161703 0.5 L 50.534168873234066 0.5 L 50.534168873234066 3.5 L 57.534168873234066 0 L 50.534168873234066 -3.5 L 50.534168873234066 -0.5 L 48.77294381161703 -0.5 Z"/><text text-anchor="middle" pointer-events="none" font-size="8px" fill="#000000" x="37.76708443661703" y="3" font-family="sans-serif">road</text></g><g class="relationship" transform="translate(28.122302399409925 -10.020741864300355) rotate(328.99727817428607)"><path class="outline" fill="#A5ABB6" stroke="none" d="M 21.40063509461097,-12.933012701892217 L 21.90063509461097,-12.06698729810778 A 33.89853728621539 33.89853728621539 0 0 1 28.169117520578602,-14.881900415238505 L 27.854036485460213,-15.830965187163336 A 34.89853728621539 34.89853728621539 0 0 0 21.40063509461097,-12.933012701892217 Z M 47.1986918135938,-16.59517608490995 L 46.959461498368725,-15.624213234808408 A 33.89853728621539 33.89853728621539 0 0 1 53.43046845806177,-13.31257383618588 L 52.14009731928061,-10.604263971306935 L 59.96491999924284,-10.753092823176333 L 55.15096330976998,-16.923653656024474 L 53.860592170988824,-14.215343791145528 A 34.89853728621539 34.89853728621539 0 0 0 47.1986918135938,-16.59517608490995"/><text text-anchor="middle" pointer-events="none" font-size="8px" fill="#000000" x="37.49204816131011" y="-14.08171954729611" font-family="sans-serif">trek</text></g><g class="relationship" transform="translate(98.86587372206745 -52.53234202368729) rotate(420.32949631739973)"><path class="outline" fill="#A5ABB6" stroke="none" d="M 25 0.5 L 36.728136342552446 0.5 L 36.728136342552446 -0.5 L 25 -0.5 Z M 56.064073842552446 0.5 L 67.79221018510489 0.5 L 67.79221018510489 3.5 L 74.79221018510489 0 L 67.79221018510489 -3.5 L 67.79221018510489 -0.5 L 56.064073842552446 -0.5 Z"/><text text-anchor="middle" pointer-events="none" font-size="8px" fill="#000000" x="46.396105092552446" y="3" font-family="sans-serif">trek</text></g><g class="relationship" transform="translate(-6.44612775001219 55.70890245169812) rotate(469.028955030247)"><path class="outline" fill="#A5ABB6" stroke="none" d="M 24.018736134675446,-6.953439040707552 L 24.277555179777966,-5.987513214418485 A 145.96392919460007 145.96392919460007 0 0 1 50.459826391322196,-10.499768547512133 L 50.380382287385025,-11.496607869744963 A 146.96392919460007 146.96392919460007 0 0 0 24.018736134675446,-6.953439040707552 Z M 69.76647073530563,-11.758698465101787 L 69.71400431838124,-10.76007577604696 A 145.96392919460007 145.96392919460007 0 0 1 96.0086909734064,-6.957283683395643 L 95.3108564219371,-4.039574489734348 L 102.93298485052765,-5.815287928910827 L 96.93913704203214,-10.847562608277368 L 96.24130249056284,-7.929853414616074 A 146.96392919460007 146.96392919460007 0 0 0 69.76647073530563,-11.758698465101787"/><text text-anchor="middle" pointer-events="none" font-size="8px" fill="#000000" x="60.07585898363389" y="-8.447730179842921" transform="rotate(180 60.07585898363389 -11.447730179842921)" font-family="sans-serif">trek</text></g><g class="relationship" transform="translate(-47.93456994877496 176.0025690802969) rotate(346.78862805697133)"><path class="outline" fill="#A5ABB6" stroke="none" d="M 21.40063509461097,12.933012701892217 L 21.90063509461097,12.06698729810778 A 51.73928449061109 51.73928449061109 0 0 0 23.976450958230895,13.202976426972334 L 23.51657164957901,14.09095785778824 A 52.73928449061109 52.73928449061109 0 0 1 21.40063509461097,12.933012701892217 Z M 68.87012841387173,15.593999343992778 L 68.47004996613109,14.67751844639946 A 51.73928449061109 51.73928449061109 0 0 0 70.61652310098351,13.6814582665351 L 69.29182876170177,10.989770151712943 L 77.11791109211552,11.039119494014686 L 72.38278222002586,17.270375752964643 L 71.05808788074411,14.578687638142485 A 52.73928449061109 52.73928449061109 0 0 1 68.87012841387173,15.593999343992778"/><text text-anchor="middle" pointer-events="none" font-size="8px" fill="#000000" x="46.039989022971824" y="22.47007356734548" font-family="sans-serif">twowheeler</text></g><g class="relationship" transform="translate(-47.93456994877496 176.0025690802969) rotate(346.78862805697133)"><path class="outline" fill="#A5ABB6" stroke="none" d="M 25 0.5 L 35.268463316150104 0.5 L 35.268463316150104 -0.5 L 25 -0.5 Z M 57.280182066150104 0.5 L 67.54864538230021 0.5 L 67.54864538230021 3.5 L 74.54864538230021 0 L 67.54864538230021 -3.5 L 67.54864538230021 -0.5 L 57.280182066150104 -0.5 Z"/><text text-anchor="middle" pointer-events="none" font-size="8px" fill="#000000" x="46.274322691150104" y="3" font-family="sans-serif">road</text></g><g class="relationship" transform="translate(-47.93456994877496 176.0025690802969) rotate(346.78862805697133)"><path class="outline" fill="#A5ABB6" stroke="none" d="M 21.40063509461097,-12.933012701892217 L 21.90063509461097,-12.06698729810778 A 51.73928449061109 51.73928449061109 0 0 1 36.57017406082354,-17.771938597556847 L 36.35370212099365,-18.74822743763763 A 52.73928449061109 52.73928449061109 0 0 0 21.40063509461097,-12.933012701892217 Z M 55.75281471049688,-19.39112455746247 L 55.601456241232825,-18.40264561798928 A 51.73928449061109 51.73928449061109 0 0 1 70.61652310098351,-13.6814582665351 L 69.29182876170177,-10.989770151712943 L 77.11791109211552,-11.039119494014686 L 72.38278222002586,-17.270375752964643 L 71.05808788074411,-14.578687638142485 A 52.73928449061109 52.73928449061109 0 0 0 55.75281471049688,-19.39112455746247"/><text text-anchor="middle" pointer-events="none" font-size="8px" fill="#000000" x="46.039989022971824" y="-16.47007356734548" font-family="sans-serif">trek</text></g><g class="relationship" transform="translate(-6.44612775001219 55.70890245169812) rotate(469.028955030247)"><path class="outline" fill="#A5ABB6" stroke="none" d="M 24.018736134675446,6.953439040707552 L 24.277555179777966,5.987513214418485 A 145.96392919460007 145.96392919460007 0 0 0 37.05335612637643,8.803812896317964 L 36.882064191684634,9.78903321335855 A 146.96392919460007 146.96392919460007 0 0 1 24.018736134675446,6.953439040707552 Z M 83.30601809702883,10.416662750413195 L 83.16142330931356,9.42717179675796 A 145.96392919460007 145.96392919460007 0 0 0 96.0086909734064,6.957283683395643 L 95.3108564219371,4.039574489734348 L 102.93298485052765,5.815287928910827 L 96.93913704203214,10.847562608277368 L 96.24130249056284,7.929853414616074 A 146.96392919460007 146.96392919460007 0 0 1 83.30601809702883,10.416662750413195"/><text text-anchor="middle" pointer-events="none" font-size="8px" fill="#000000" x="60.075858983633886" y="14.447730179842921" transform="rotate(180 60.075858983633886 11.447730179842921)" font-family="sans-serif">twowheeler</text></g><g class="relationship" transform="translate(-47.93456994877496 176.0025690802969) rotate(389.67969249950886)"><path class="outline" fill="#A5ABB6" stroke="none" d="M 25 0.5 L 50.96192483869787 0.5 L 50.96192483869787 -0.5 L 25 -0.5 Z M 70.29786233869787 0.5 L 96.25978717739574 0.5 L 96.25978717739574 3.5 L 103.25978717739574 0 L 96.25978717739574 -3.5 L 96.25978717739574 -0.5 L 70.29786233869787 -0.5 Z"/><text text-anchor="middle" pointer-events="none" font-size="8px" fill="#000000" x="60.62989358869787" y="3" font-family="sans-serif">trek</text></g><g class="relationship" transform="translate(63.49843951813098 239.5105009308878) rotate(319.35014941450595)"><path class="outline" fill="#A5ABB6" stroke="none" d="M 25 0.5 L 52.21405819385885 0.5 L 52.21405819385885 -0.5 L 25 -0.5 Z M 71.54999569385885 0.5 L 98.7640538877177 0.5 L 98.7640538877177 3.5 L 105.7640538877177 0 L 98.7640538877177 -3.5 L 98.7640538877177 -0.5 L 71.54999569385885 -0.5 Z"/><text text-anchor="middle" pointer-events="none" font-size="8px" fill="#000000" x="61.88202694385885" y="3" font-family="sans-serif">trek</text></g></g><g class="layer nodes"><g class="node" transform="translate(28.122302399409925,-10.020741864300355)"><circle class="outline" cx="0" cy="0" r="25" fill="#F16667" stroke="#eb2728" stroke-width="2px"/><text text-anchor="middle" pointer-events="none" font-family="sans-serif" dy="1.5625" font-size="25" fill="#FFFFFF"/><text text-anchor="middle" pointer-events="none" x="0" y="5" font-size="10px" fill="#FFFFFF" font-family="sans-serif"> Darjeeling</text></g><g class="node" transform="translate(162.7097561067611,154.326274398621)"><circle class="outline" cx="0" cy="0" r="25" fill="#D9C8AE" stroke="#c0a378" stroke-width="2px"/><text text-anchor="middle" pointer-events="none" font-family="sans-serif" dy="1.5625" font-size="25" fill="#2A2C34"/><text text-anchor="middle" pointer-events="none" x="0" y="5" font-size="10px" fill="#2A2C34" font-family="sans-serif"> Sandak…</text></g><g class="node" transform="translate(148.26415783677643,34.17575875213782)"><circle class="outline" cx="0" cy="0" r="25" fill="#8DCC93" stroke="#5db665" stroke-width="2px"/><text text-anchor="middle" pointer-events="none" font-family="sans-serif" dy="1.5625" font-size="25" fill="#2A2C34"/><text text-anchor="middle" pointer-events="none" x="0" y="5" font-size="10px" fill="#2A2C34" font-family="sans-serif"> Tumbling</text></g><g class="node" transform="translate(277.8993586925453,70.96499884101519)"><circle class="outline" cx="0" cy="0" r="25" fill="#8DCC93" stroke="#5db665" stroke-width="2px"/><text text-anchor="middle" pointer-events="none" font-family="sans-serif" dy="1.5625" font-size="25" fill="#2A2C34"/><text text-anchor="middle" pointer-events="none" x="0" y="5" font-size="10px" fill="#2A2C34" font-family="sans-serif"> Gairibus</text></g><g class="node" transform="translate(204.81234330337023,14.243616540470596)"><circle class="outline" cx="0" cy="0" r="25" fill="#8DCC93" stroke="#5db665" stroke-width="2px"/><text text-anchor="middle" pointer-events="none" font-family="sans-serif" dy="1.5625" font-size="25" fill="#2A2C34"/><text text-anchor="middle" pointer-events="none" x="0" y="5" font-size="10px" fill="#2A2C34" font-family="sans-serif"> BhikeBh…</text></g><g class="node" transform="translate(98.86587372206745,-52.53234202368729)"><circle class="outline" cx="0" cy="0" r="25" fill="#F16667" stroke="#eb2728" stroke-width="2px"/><text text-anchor="middle" pointer-events="none" font-family="sans-serif" dy="1.5625" font-size="25" fill="#FFFFFF"/><text text-anchor="middle" pointer-events="none" x="0" y="5" font-size="10px" fill="#FFFFFF" font-family="sans-serif"> Rimbik</text></g><g class="node" transform="translate(-6.44612775001219,55.70890245169812)"><circle class="outline" cx="0" cy="0" r="25" fill="#8DCC93" stroke="#5db665" stroke-width="2px"/><text text-anchor="middle" pointer-events="none" font-family="sans-serif" dy="1.5625" font-size="25" fill="#2A2C34"/><text text-anchor="middle" pointer-events="none" x="0" y="5" font-size="10px" fill="#2A2C34" font-family="sans-serif"> Sirikhola</text></g><g class="node" transform="translate(48.9793772937138,153.2513135692033)"><circle class="outline" cx="0" cy="0" r="25" fill="#8DCC93" stroke="#5db665" stroke-width="2px"/><text text-anchor="middle" pointer-events="none" font-family="sans-serif" dy="1.5625" font-size="25" fill="#2A2C34"/><text text-anchor="middle" pointer-events="none" x="0" y="5" font-size="10px" fill="#2A2C34" font-family="sans-serif"> Gurdum</text></g><g class="node" transform="translate(-47.93456994877496,176.0025690802969)"><circle class="outline" cx="0" cy="0" r="25" fill="#8DCC93" stroke="#5db665" stroke-width="2px"/><text text-anchor="middle" pointer-events="none" font-family="sans-serif" dy="1.5625" font-size="25" fill="#2A2C34"/><text text-anchor="middle" pointer-events="none" x="0" y="5" font-size="10px" fill="#2A2C34" font-family="sans-serif"> Rammam</text></g><g class="node" transform="translate(63.49843951813098,239.5105009308878)"><circle class="outline" cx="0" cy="0" r="25" fill="#D9C8AE" stroke="#c0a378" stroke-width="2px"/><text text-anchor="middle" pointer-events="none" font-family="sans-serif" dy="1.5625" font-size="25" fill="#2A2C34"/><text text-anchor="middle" pointer-events="none" x="0" y="5" font-size="10px" fill="#2A2C34" font-family="sans-serif"> Sabargr…</text></g></g></svg>