<svg xmlns="http://www.w3.org/2000/svg" width="198.78170776367188" height="235.29830932617188" viewBox="-1.6242847442626953 -16.64141845703125 198.78170776367188 235.29830932617188"><title>Neo4j Graph Visualization</title><desc>Created using Neo4j (http://www.neo4j.com/)</desc><g class="layer relationships"><g class="relationship" transform="translate(64.21594260525914 189.65689030890778) rotate(329.12566544809465)"><path class="outline" fill="#A5ABB6" stroke="none" d="M 25 0.5 L 34.26990004074612 0.5 L 34.26990004074612 -0.5 L 25 -0.5 Z M 79.83240004074612 0.5 L 89.10230008149225 0.5 L 89.10230008149225 3.5 L 96.10230008149225 0 L 89.10230008149225 -3.5 L 89.10230008149225 -0.5 L 79.83240004074612 -0.5 Z"/><text text-anchor="middle" pointer-events="none" font-size="8px" fill="#000000" x="57.05115004074612" y="3" font-family="sans-serif">ACTED_IN</text></g><g class="relationship" transform="translate(64.21594260525914 189.65689030890778) rotate(252.3244963219126)"><path class="outline" fill="#A5ABB6" stroke="none" d="M 25 0.5 L 34.38591960762224 0.5 L 34.38591960762224 -0.5 L 25 -0.5 Z M 79.94841960762224 0.5 L 89.33433921524448 0.5 L 89.33433921524448 3.5 L 96.33433921524448 0 L 89.33433921524448 -3.5 L 89.33433921524448 -0.5 L 79.94841960762224 -0.5 Z"/><text text-anchor="middle" pointer-events="none" font-size="8px" fill="#000000" x="57.16716960762224" y="3" transform="rotate(180 57.16716960762224 0)" font-family="sans-serif">ACTED_IN</text></g><g class="relationship" transform="translate(64.21594260525914 189.65689030890778) rotate(291.3738873456632)"><path class="outline" fill="#A5ABB6" stroke="none" d="M 25 0.5 L 26.43213069848816 0.5 L 26.43213069848816 -0.5 L 25 -0.5 Z M 61.76806819848816 0.5 L 63.20019889697632 0.5 L 63.20019889697632 3.5 L 70.20019889697632 0 L 63.20019889697632 -3.5 L 63.20019889697632 -0.5 L 61.76806819848816 -0.5 Z"/><text text-anchor="middle" pointer-events="none" font-size="8px" fill="#000000" x="44.10009944848816" y="3" font-family="sans-serif">ACTE…</text></g><g class="relationship" transform="translate(131.5773005645076 12.358581817139711) rotate(432.3768683012165)"><path class="outline" fill="#A5ABB6" stroke="none" d="M 25 0.5 L 34.130899670676875 0.5 L 34.130899670676875 -0.5 L 25 -0.5 Z M 79.69339967067688 0.5 L 88.82429934135375 0.5 L 88.82429934135375 3.5 L 95.82429934135375 0 L 88.82429934135375 -3.5 L 88.82429934135375 -0.5 L 79.69339967067688 -0.5 Z"/><text text-anchor="middle" pointer-events="none" font-size="8px" fill="#000000" x="56.912149670676875" y="3" font-family="sans-serif">ACTED_IN</text></g><g class="relationship" transform="translate(131.5773005645076 12.358581817139711) rotate(509.37257103851954)"><path class="outline" fill="#A5ABB6" stroke="none" d="M 25 0.5 L 34.2659893082779 0.5 L 34.2659893082779 -0.5 L 25 -0.5 Z M 79.82848930827791 0.5 L 89.0944786165558 0.5 L 89.0944786165558 3.5 L 96.0944786165558 0 L 89.0944786165558 -3.5 L 89.0944786165558 -0.5 L 79.82848930827791 -0.5 Z"/><text text-anchor="middle" pointer-events="none" font-size="8px" fill="#000000" x="57.0472393082779" y="3" transform="rotate(180 57.0472393082779 0)" font-family="sans-serif">ACTED_IN</text></g><g class="relationship" transform="translate(131.5773005645076 12.358581817139711) rotate(470.2285249374317)"><path class="outline" fill="#A5ABB6" stroke="none" d="M 25 0.5 L 26.068418291024173 0.5 L 26.068418291024173 -0.5 L 25 -0.5 Z M 61.40435579102417 0.5 L 62.472774082048346 0.5 L 62.472774082048346 3.5 L 69.47277408204835 0 L 62.472774082048346 -3.5 L 62.472774082048346 -0.5 L 61.40435579102417 -0.5 Z"/><text text-anchor="middle" pointer-events="none" font-size="8px" fill="#000000" x="43.73638704102417" y="3" transform="rotate(180 43.73638704102417 0)" font-family="sans-serif">ACTE…</text></g></g><g class="layer nodes"><g class="node" transform="translate(64.21594260525914,189.65689030890778)"><circle class="outline" cx="0" cy="0" r="25" fill="#F79767" stroke="#f36924" stroke-width="2px"/><text text-anchor="middle" pointer-events="none" font-family="sans-serif" dy="1.5625" font-size="25" fill="#FFFFFF"/><text text-anchor="middle" pointer-events="none" font-family="sans-serif" dy="1.5625" font-size="25" fill="#FFFFFF"/><text text-anchor="middle" pointer-events="none" x="0" y="0" font-size="10px" fill="#FFFFFF" font-family="sans-serif"> Hugo</text><text text-anchor="middle" pointer-events="none" x="0" y="10" font-size="10px" fill="#FFFFFF" font-family="sans-serif"> Weaving</text></g><g class="node" transform="translate(168.15742413856287,127.51241749201378)"><circle class="outline" cx="0" cy="0" r="25" fill="#57C7E3" stroke="#23b3d7" stroke-width="2px"/><text text-anchor="middle" pointer-events="none" font-family="sans-serif" dy="1.5625" font-size="25" fill="#2A2C34"/><text text-anchor="middle" pointer-events="none" font-family="sans-serif" dy="1.5625" font-size="25" fill="#2A2C34"/><text text-anchor="middle" pointer-events="none" font-family="sans-serif" dy="1.5625" font-size="25" fill="#2A2C34"/><text text-anchor="middle" pointer-events="none" x="0" y="-5" font-size="10px" fill="#2A2C34" font-family="sans-serif"> The</text><text text-anchor="middle" pointer-events="none" x="0" y="5" font-size="10px" fill="#2A2C34" font-family="sans-serif"> Matrix</text><text text-anchor="middle" pointer-events="none" x="0" y="15" font-size="10px" fill="#2A2C34" font-family="sans-serif"> Revol…</text></g><g class="node" transform="translate(131.5773005645076,12.358581817139711)"><circle class="outline" cx="0" cy="0" r="25" fill="#F79767" stroke="#f36924" stroke-width="2px"/><text text-anchor="middle" pointer-events="none" font-family="sans-serif" dy="1.5625" font-size="25" fill="#FFFFFF"/><text text-anchor="middle" pointer-events="none" font-family="sans-serif" dy="1.5625" font-size="25" fill="#FFFFFF"/><text text-anchor="middle" pointer-events="none" x="0" y="0" font-size="10px" fill="#FFFFFF" font-family="sans-serif"> Keanu</text><text text-anchor="middle" pointer-events="none" x="0" y="10" font-size="10px" fill="#FFFFFF" font-family="sans-serif"> Reeves</text></g><g class="node" transform="translate(27.375715182794693,74.05057769466896)"><circle class="outline" cx="0" cy="0" r="25" fill="#57C7E3" stroke="#23b3d7" stroke-width="2px"/><text text-anchor="middle" pointer-events="none" font-family="sans-serif" dy="1.5625" font-size="25" fill="#2A2C34"/><text text-anchor="middle" pointer-events="none" font-family="sans-serif" dy="1.5625" font-size="25" fill="#2A2C34"/><text text-anchor="middle" pointer-events="none" font-family="sans-serif" dy="1.5625" font-size="25" fill="#2A2C34"/><text text-anchor="middle" pointer-events="none" x="0" y="-5" font-size="10px" fill="#2A2C34" font-family="sans-serif"> The</text><text text-anchor="middle" pointer-events="none" x="0" y="5" font-size="10px" fill="#2A2C34" font-family="sans-serif"> Matrix</text><text text-anchor="middle" pointer-events="none" x="0" y="15" font-size="10px" fill="#2A2C34" font-family="sans-serif"> Reloa…</text></g><g class="node" transform="translate(98.91188510637924,101.00436951010127)"><circle class="outline" cx="0" cy="0" r="25" fill="#57C7E3" stroke="#23b3d7" stroke-width="2px"/><text text-anchor="middle" pointer-events="none" font-family="sans-serif" dy="1.5625" font-size="25" fill="#2A2C34"/><text text-anchor="middle" pointer-events="none" font-family="sans-serif" dy="1.5625" font-size="25" fill="#2A2C34"/><text text-anchor="middle" pointer-events="none" x="0" y="0" font-size="10px" fill="#2A2C34" font-family="sans-serif"> The</text><text text-anchor="middle" pointer-events="none" x="0" y="10" font-size="10px" fill="#2A2C34" font-family="sans-serif"> Matrix</text></g></g></svg>