<svg xmlns="http://www.w3.org/2000/svg" width="343.3719177246094" height="383.87725830078125" viewBox="-48.48297119140625 -113.08812713623047 343.3719177246094 383.87725830078125"><title>Neo4j Graph Visualization</title><desc>Created using Neo4j (http://www.neo4j.com/)</desc><g class="layer relationships"><g class="relationship" transform="translate(265.8889480367609 241.78913818148726) rotate(209.12176295071436)"><path class="outline" fill="#A5ABB6" stroke="none" d="M 25 0.5 L 27.492961702889076 0.5 L 27.492961702889076 -0.5 L 25 -0.5 Z M 74.38358670288908 0.5 L 76.87654840577815 0.5 L 76.87654840577815 3.5 L 83.87654840577815 0 L 76.87654840577815 -3.5 L 76.87654840577815 -0.5 L 74.38358670288908 -0.5 Z"/><text text-anchor="middle" pointer-events="none" font-size="8px" fill="#000000" x="50.938274202889076" y="3" transform="rotate(180 50.938274202889076 0)" font-family="sans-serif">DIRECTED</text></g><g class="relationship" transform="translate(64.52913598794146 123.80124811974648) rotate(303.5262636857847)"><path class="outline" fill="#A5ABB6" stroke="none" d="M 24.018736134675446,6.953439040707552 L 24.277555179777966,5.987513214418485 A 155.71844448376322 155.71844448376322 0 0 0 36.89035261776898,8.811765619754595 L 36.71253102598553,9.795828362416671 A 156.71844448376322 156.71844448376322 0 0 1 24.018736134675446,6.953439040707552 Z M 88.41763565958408,10.470041540637965 L 88.26553370724407,9.481676731423107 A 155.71844448376322 155.71844448376322 0 0 0 100.94768439104489,6.987259987130304 L 100.2470500463012,4.070221846315965 L 107.8708791104023,5.8386195395307485 L 101.88186351736981,10.876644174882756 L 101.18122917262612,7.959606034068417 A 156.71844448376322 156.71844448376322 0 0 1 88.41763565958408,10.470041540637965"/><text text-anchor="middle" pointer-events="none" font-size="8px" fill="#000000" x="62.543603541059056" y="14.780211260585418" font-family="sans-serif">PRODUCED</text></g><g class="relationship" transform="translate(64.52913598794146 123.80124811974648) rotate(303.5262636857847)"><path class="outline" fill="#A5ABB6" stroke="none" d="M 24.018736134675446,-6.953439040707552 L 24.277555179777966,-5.987513214418485 A 155.71844448376322 155.71844448376322 0 0 1 44.774390805568316,-10.028773115175767 L 44.647199299475325,-11.020651293571575 A 156.71844448376322 156.71844448376322 0 0 0 24.018736134675446,-6.953439040707552 Z M 80.45372826501543,-11.487553621030429 L 80.35244296939253,-10.492696199642523 A 155.71844448376322 155.71844448376322 0 0 1 100.94768439104489,-6.987259987130304 L 100.2470500463012,-4.070221846315965 L 107.8708791104023,-5.8386195395307485 L 101.88186351736981,-10.876644174882756 L 101.18122917262612,-7.959606034068417 A 156.71844448376322 156.71844448376322 0 0 0 80.45372826501543,-11.487553621030429"/><text text-anchor="middle" pointer-events="none" font-size="8px" fill="#000000" x="62.54360354105902" y="-8.780211260585418" font-family="sans-serif">WROTE</text></g><g class="relationship" transform="translate(64.52913598794146 123.80124811974648) rotate(391.45812002311754)"><path class="outline" fill="#A5ABB6" stroke="none" d="M 25 0.5 L 35.331302811462564 0.5 L 35.331302811462564 -0.5 L 25 -0.5 Z M 82.22192781146256 0.5 L 92.55323062292513 0.5 L 92.55323062292513 3.5 L 99.55323062292513 0 L 92.55323062292513 -3.5 L 92.55323062292513 -0.5 L 82.22192781146256 -0.5 Z"/><text text-anchor="middle" pointer-events="none" font-size="8px" fill="#000000" x="58.776615311462564" y="3" font-family="sans-serif">DIRECTED</text></g><g class="relationship" transform="translate(64.52913598794146 123.80124811974648) rotate(252.49607674774762)"><path class="outline" fill="#A5ABB6" stroke="none" d="M 25 0.5 L 26.098968614279045 0.5 L 26.098968614279045 -0.5 L 25 -0.5 Z M 72.98959361427904 0.5 L 74.08856222855809 0.5 L 74.08856222855809 3.5 L 81.08856222855809 0 L 74.08856222855809 -3.5 L 74.08856222855809 -0.5 L 72.98959361427904 -0.5 Z"/><text text-anchor="middle" pointer-events="none" font-size="8px" fill="#000000" x="49.544281114279045" y="3" transform="rotate(180 49.544281114279045 0)" font-family="sans-serif">DIRECTED</text></g><g class="relationship" transform="translate(64.52913598794146 123.80124811974648) rotate(188.84420818469619)"><path class="outline" fill="#A5ABB6" stroke="none" d="M 25 0.5 L 25.12284275813 0.5 L 25.12284275813 -0.5 L 25 -0.5 Z M 52.90018650813 0.5 L 53.02302926626 0.5 L 53.02302926626 3.5 L 60.02302926626 0 L 53.02302926626 -3.5 L 53.02302926626 -0.5 L 52.90018650813 -0.5 Z"/><text text-anchor="middle" pointer-events="none" font-size="8px" fill="#000000" x="39.01151463313" y="3" transform="rotate(180 39.01151463313 0)" font-family="sans-serif">DIR…</text></g><g class="relationship" transform="translate(64.52913598794146 123.80124811974648) rotate(450.55689529191187)"><path class="outline" fill="#A5ABB6" stroke="none" d="M 25 0.5 L 27.823541005886106 0.5 L 27.823541005886106 -0.5 L 25 -0.5 Z M 60.936822255886106 0.5 L 63.76036326177221 0.5 L 63.76036326177221 3.5 L 70.76036326177221 0 L 63.76036326177221 -3.5 L 63.76036326177221 -0.5 L 60.936822255886106 -0.5 Z"/><text text-anchor="middle" pointer-events="none" font-size="8px" fill="#000000" x="44.380181630886106" y="3" transform="rotate(180 44.380181630886106 0)" font-family="sans-serif">DIRE…</text></g><g class="relationship" transform="translate(121.13909086822737 104.44180511624756) rotate(280.23206561614495)"><path class="outline" fill="#A5ABB6" stroke="none" d="M 24.018736134675446,6.953439040707552 L 24.277555179777966,5.987513214418485 A 76.15267754360715 76.15267754360715 0 0 0 24.38237263387949,6.015518954592892 L 24.12493000070998,6.981812538669061 A 77.15267754360715 77.15267754360715 0 0 1 24.018736134675446,6.953439040707552 Z M 61.11030448686664,7.658253592181438 L 60.88836810606412,6.683192443905966 A 76.15267754360715 76.15267754360715 0 0 0 60.994139535073245,6.659038252294431 L 60.32416357546027,3.734806350830277 L 67.92900996509177,5.583132996774836 L 61.887440814557216,10.558014120913304 L 61.21746485494424,7.6337822194491505 A 77.15267754360715 77.15267754360715 0 0 1 61.11030448686664,7.658253592181438"/><text text-anchor="middle" pointer-events="none" font-size="8px" fill="#000000" x="42.585619854643554" y="12.069535721943808" font-family="sans-serif">PROD…</text></g><g class="relationship" transform="translate(121.13909086822737 104.44180511624756) rotate(280.23206561614495)"><path class="outline" fill="#A5ABB6" stroke="none" d="M 24.018736134675446,-6.953439040707552 L 24.277555179777966,-5.987513214418485 A 76.15267754360715 76.15267754360715 0 0 1 25.02623182767556,-6.1840479222872915 L 24.777244040935148,-7.15255454696991 A 77.15267754360715 77.15267754360715 0 0 0 24.018736134675446,-6.953439040707552 Z M 60.45218324637409,-7.805028499049257 L 60.23877698094081,-6.8280649552699515 A 76.15267754360715 76.15267754360715 0 0 1 60.994139535073245,-6.659038252294431 L 60.32416357546027,-3.734806350830277 L 67.92900996509177,-5.583132996774836 L 61.887440814557216,-10.558014120913304 L 61.21746485494424,-7.6337822194491505 A 77.15267754360715 77.15267754360715 0 0 0 60.45218324637409,-7.805028499049257"/><text text-anchor="middle" pointer-events="none" font-size="8px" fill="#000000" x="42.58561985464355" y="-6.069535721943808" font-family="sans-serif">WROTE</text></g><g class="relationship" transform="translate(121.13909086822737 104.44180511624756) rotate(419.5280267383373)"><path class="outline" fill="#A5ABB6" stroke="none" d="M 25 0.5 L 25.994763977964844 0.5 L 25.994763977964844 -0.5 L 25 -0.5 Z M 64.88538897796485 0.5 L 65.88015295592969 0.5 L 65.88015295592969 3.5 L 72.88015295592969 0 L 65.88015295592969 -3.5 L 65.88015295592969 -0.5 L 64.88538897796485 -0.5 Z"/><text text-anchor="middle" pointer-events="none" font-size="8px" fill="#000000" x="45.440076477964844" y="3" font-family="sans-serif">DIREC…</text></g><g class="relationship" transform="translate(121.13909086822737 104.44180511624756) rotate(222.74697409412033)"><path class="outline" fill="#A5ABB6" stroke="none" d="M 25 0.5 L 33.32385167246097 0.5 L 33.32385167246097 -0.5 L 25 -0.5 Z M 80.21447667246096 0.5 L 88.53832834492194 0.5 L 88.53832834492194 3.5 L 95.53832834492194 0 L 88.53832834492194 -3.5 L 88.53832834492194 -0.5 L 80.21447667246096 -0.5 Z"/><text text-anchor="middle" pointer-events="none" font-size="8px" fill="#000000" x="56.76916417246097" y="3" transform="rotate(180 56.76916417246097 0)" font-family="sans-serif">DIRECTED</text></g><g class="relationship" transform="translate(121.13909086822737 104.44180511624756) rotate(537.4399758311688)"><path class="outline" fill="#A5ABB6" stroke="none" d="M 25 0.5 L 43.4359617924318 0.5 L 43.4359617924318 -0.5 L 25 -0.5 Z M 90.3265867924318 0.5 L 108.7625485848636 0.5 L 108.7625485848636 3.5 L 115.7625485848636 0 L 108.7625485848636 -3.5 L 108.7625485848636 -0.5 L 90.3265867924318 -0.5 Z"/><text text-anchor="middle" pointer-events="none" font-size="8px" fill="#000000" x="66.8812742924318" y="3" transform="rotate(180 66.8812742924318 0)" font-family="sans-serif">DIRECTED</text></g><g class="relationship" transform="translate(121.13909086822737 104.44180511624756) rotate(476.55830424084553)"><path class="outline" fill="#A5ABB6" stroke="none" d="M 25 0.5 L 37.402298776216384 0.5 L 37.402298776216384 -0.5 L 25 -0.5 Z M 84.29292377621638 0.5 L 96.69522255243277 0.5 L 96.69522255243277 3.5 L 103.69522255243277 0 L 96.69522255243277 -3.5 L 96.69522255243277 -0.5 L 84.29292377621638 -0.5 Z"/><text text-anchor="middle" pointer-events="none" font-size="8px" fill="#000000" x="60.847611276216384" y="3" transform="rotate(180 60.847611276216384 0)" font-family="sans-serif">DIRECTED</text></g><g class="relationship" transform="translate(187.84875041151577 -84.08812822074563) rotate(477.24787709844964)"><path class="outline" fill="#A5ABB6" stroke="none" d="M 25 0.5 L 28.002069485723915 0.5 L 28.002069485723915 -0.5 L 25 -0.5 Z M 74.89269448572392 0.5 L 77.89476397144783 0.5 L 77.89476397144783 3.5 L 84.89476397144783 0 L 77.89476397144783 -3.5 L 77.89476397144783 -0.5 L 74.89269448572392 -0.5 Z"/><text text-anchor="middle" pointer-events="none" font-size="8px" fill="#000000" x="51.447381985723915" y="3" transform="rotate(180 51.447381985723915 0)" font-family="sans-serif">DIRECTED</text></g></g><g class="layer nodes"><g class="node" transform="translate(265.8889480367609,241.78913818148726)"><circle class="outline" cx="0" cy="0" r="25" fill="#F79767" stroke="#f36924" stroke-width="2px"/><text text-anchor="middle" pointer-events="none" font-family="sans-serif" dy="1.5625" font-size="25" fill="#FFFFFF"/><text text-anchor="middle" pointer-events="none" font-family="sans-serif" dy="1.5625" font-size="25" fill="#FFFFFF"/><text text-anchor="middle" pointer-events="none" x="0" y="0" font-size="10px" fill="#FFFFFF" font-family="sans-serif"> Tom</text><text text-anchor="middle" pointer-events="none" x="0" y="10" font-size="10px" fill="#FFFFFF" font-family="sans-serif"> Tykwer</text></g><g class="node" transform="translate(170.7757636295196,188.80248944173525)"><circle class="outline" cx="0" cy="0" r="25" fill="#57C7E3" stroke="#23b3d7" stroke-width="2px"/><text text-anchor="middle" pointer-events="none" font-family="sans-serif" dy="1.5625" font-size="25" fill="#2A2C34"/><text text-anchor="middle" pointer-events="none" font-family="sans-serif" dy="1.5625" font-size="25" fill="#2A2C34"/><text text-anchor="middle" pointer-events="none" x="0" y="0" font-size="10px" fill="#2A2C34" font-family="sans-serif"> Cloud</text><text text-anchor="middle" pointer-events="none" x="0" y="10" font-size="10px" fill="#2A2C34" font-family="sans-serif"> Atlas</text></g><g class="node" transform="translate(64.52913598794146,123.80124811974648)"><circle class="outline" cx="0" cy="0" r="25" fill="#F79767" stroke="#f36924" stroke-width="2px"/><text text-anchor="middle" pointer-events="none" font-family="sans-serif" dy="1.5625" font-size="25" fill="#FFFFFF"/><text text-anchor="middle" pointer-events="none" font-family="sans-serif" dy="1.5625" font-size="25" fill="#FFFFFF"/><text text-anchor="middle" pointer-events="none" x="0" y="0" font-size="10px" fill="#FFFFFF" font-family="sans-serif"> Lana</text><text text-anchor="middle" pointer-events="none" x="0" y="10" font-size="10px" fill="#FFFFFF" font-family="sans-serif"> Wacho…</text></g><g class="node" transform="translate(121.13909086822737,104.44180511624756)"><circle class="outline" cx="0" cy="0" r="25" fill="#F79767" stroke="#f36924" stroke-width="2px"/><text text-anchor="middle" pointer-events="none" font-family="sans-serif" dy="1.5625" font-size="25" fill="#FFFFFF"/><text text-anchor="middle" pointer-events="none" font-family="sans-serif" dy="1.5625" font-size="25" fill="#FFFFFF"/><text text-anchor="middle" pointer-events="none" x="0" y="0" font-size="10px" fill="#FFFFFF" font-family="sans-serif"> Lilly</text><text text-anchor="middle" pointer-events="none" x="0" y="10" font-size="10px" fill="#FFFFFF" font-family="sans-serif"> Wacho…</text></g><g class="node" transform="translate(187.84875041151577,-84.08812822074563)"><circle class="outline" cx="0" cy="0" r="25" fill="#F79767" stroke="#f36924" stroke-width="2px"/><text text-anchor="middle" pointer-events="none" font-family="sans-serif" dy="1.5625" font-size="25" fill="#FFFFFF"/><text text-anchor="middle" pointer-events="none" font-family="sans-serif" dy="1.5625" font-size="25" fill="#FFFFFF"/><text text-anchor="middle" pointer-events="none" x="0" y="0" font-size="10px" fill="#FFFFFF" font-family="sans-serif"> James</text><text text-anchor="middle" pointer-events="none" x="0" y="10" font-size="10px" fill="#FFFFFF" font-family="sans-serif"> Marshall</text></g><g class="node" transform="translate(137.5344244971222,13.612065003835111)"><circle class="outline" cx="0" cy="0" r="25" fill="#57C7E3" stroke="#23b3d7" stroke-width="2px"/><text text-anchor="middle" pointer-events="none" font-family="sans-serif" dy="1.5625" font-size="25" fill="#2A2C34"/><text text-anchor="middle" pointer-events="none" font-family="sans-serif" dy="1.5625" font-size="25" fill="#2A2C34"/><text text-anchor="middle" pointer-events="none" x="0" y="0" font-size="10px" fill="#2A2C34" font-family="sans-serif"> V for</text><text text-anchor="middle" pointer-events="none" x="0" y="10" font-size="10px" fill="#2A2C34" font-family="sans-serif"> Vendetta</text></g><g class="node" transform="translate(32.62076207913222,22.624972688110503)"><circle class="outline" cx="0" cy="0" r="25" fill="#57C7E3" stroke="#23b3d7" stroke-width="2px"/><text text-anchor="middle" pointer-events="none" font-family="sans-serif" dy="1.5625" font-size="25" fill="#2A2C34"/><text text-anchor="middle" pointer-events="none" font-family="sans-serif" dy="1.5625" font-size="25" fill="#2A2C34"/><text text-anchor="middle" pointer-events="none" font-family="sans-serif" dy="1.5625" font-size="25" fill="#2A2C34"/><text text-anchor="middle" pointer-events="none" x="0" y="-5" font-size="10px" fill="#2A2C34" font-family="sans-serif"> The</text><text text-anchor="middle" pointer-events="none" x="0" y="5" font-size="10px" fill="#2A2C34" font-family="sans-serif"> Matrix</text><text text-anchor="middle" pointer-events="none" x="0" y="15" font-size="10px" fill="#2A2C34" font-family="sans-serif"> Revol…</text></g><g class="node" transform="translate(-19.482973433646325,110.72910307210924)"><circle class="outline" cx="0" cy="0" r="25" fill="#57C7E3" stroke="#23b3d7" stroke-width="2px"/><text text-anchor="middle" pointer-events="none" font-family="sans-serif" dy="1.5625" font-size="25" fill="#2A2C34"/><text text-anchor="middle" pointer-events="none" font-family="sans-serif" dy="1.5625" font-size="25" fill="#2A2C34"/><text text-anchor="middle" pointer-events="none" font-family="sans-serif" dy="1.5625" font-size="25" fill="#2A2C34"/><text text-anchor="middle" pointer-events="none" x="0" y="-5" font-size="10px" fill="#2A2C34" font-family="sans-serif"> The</text><text text-anchor="middle" pointer-events="none" x="0" y="5" font-size="10px" fill="#2A2C34" font-family="sans-serif"> Matrix</text><text text-anchor="middle" pointer-events="none" x="0" y="15" font-size="10px" fill="#2A2C34" font-family="sans-serif"> Reloa…</text></g><g class="node" transform="translate(63.598392812144674,219.5570880939605)"><circle class="outline" cx="0" cy="0" r="25" fill="#57C7E3" stroke="#23b3d7" stroke-width="2px"/><text text-anchor="middle" pointer-events="none" font-family="sans-serif" dy="1.5625" font-size="25" fill="#2A2C34"/><text text-anchor="middle" pointer-events="none" font-family="sans-serif" dy="1.5625" font-size="25" fill="#2A2C34"/><text text-anchor="middle" pointer-events="none" x="0" y="0" font-size="10px" fill="#2A2C34" font-family="sans-serif"> The</text><text text-anchor="middle" pointer-events="none" x="0" y="10" font-size="10px" fill="#2A2C34" font-family="sans-serif"> Matrix</text></g></g></svg>