<svg xmlns="http://www.w3.org/2000/svg" width="349.59857177734375" height="445.9669189453125" viewBox="-84.50718688964844 -94.53102111816406 349.59857177734375 445.9669189453125"><title>Neo4j Graph Visualization</title><desc>Created using Neo4j (http://www.neo4j.com/)</desc><g class="layer relationships"><g class="relationship" transform="translate(127.29193787170853 240.7021097009149) rotate(499.9533332961391)"><path class="outline" fill="#A5ABB6" stroke="none" d="M 25 0.5 L 31.67554560488687 0.5 L 31.67554560488687 -0.5 L 25 -0.5 Z M 77.23804560488688 0.5 L 83.91359120977374 0.5 L 83.91359120977374 3.5 L 90.91359120977374 0 L 83.91359120977374 -3.5 L 83.91359120977374 -0.5 L 77.23804560488688 -0.5 Z"/><text text-anchor="middle" pointer-events="none" font-size="8px" fill="#000000" x="54.45679560488687" y="3" transform="rotate(180 54.45679560488687 0)" font-family="sans-serif">ACTED_IN</text></g><g class="relationship" transform="translate(127.29193787170853 240.7021097009149) rotate(406.2283072270393)"><path class="outline" fill="#A5ABB6" stroke="none" d="M 25 0.5 L 30.31308324939974 0.5 L 30.31308324939974 -0.5 L 25 -0.5 Z M 75.87558324939974 0.5 L 81.18866649879948 0.5 L 81.18866649879948 3.5 L 88.18866649879948 0 L 81.18866649879948 -3.5 L 81.18866649879948 -0.5 L 75.87558324939974 -0.5 Z"/><text text-anchor="middle" pointer-events="none" font-size="8px" fill="#000000" x="53.09433324939974" y="3" font-family="sans-serif">ACTED_IN</text></g><g class="relationship" transform="translate(127.29193787170853 240.7021097009149) rotate(284.2620082336149)"><path class="outline" fill="#A5ABB6" stroke="none" d="M 25 0.5 L 39.89439732102167 0.5 L 39.89439732102167 -0.5 L 25 -0.5 Z M 85.45689732102167 0.5 L 100.35129464204334 0.5 L 100.35129464204334 3.5 L 107.35129464204334 0 L 100.35129464204334 -3.5 L 100.35129464204334 -0.5 L 85.45689732102167 -0.5 Z"/><text text-anchor="middle" pointer-events="none" font-size="8px" fill="#000000" x="62.67564732102167" y="3" font-family="sans-serif">ACTED_IN</text></g><g class="relationship" transform="translate(127.29193787170853 240.7021097009149) rotate(259.3900223285322)"><path class="outline" fill="#A5ABB6" stroke="none" d="M 25 0.5 L 25.089790761369947 0.5 L 25.089790761369947 -0.5 L 25 -0.5 Z M 66.20307201136995 0.5 L 66.2928627727399 0.5 L 66.2928627727399 3.5 L 73.2928627727399 0 L 66.2928627727399 -3.5 L 66.2928627727399 -0.5 L 66.20307201136995 -0.5 Z"/><text text-anchor="middle" pointer-events="none" font-size="8px" fill="#000000" x="45.64643138636995" y="3" transform="rotate(180 45.64643138636995 0)" font-family="sans-serif">ACTED…</text></g><g class="relationship" transform="translate(224.9445631588553 55.41308359004441) rotate(498.76385787991603)"><path class="outline" fill="#A5ABB6" stroke="none" d="M 25 0.5 L 27.192759643755302 0.5 L 27.192759643755302 -0.5 L 25 -0.5 Z M 52.3060408937553 0.5 L 54.498800537510604 0.5 L 54.498800537510604 3.5 L 61.498800537510604 0 L 54.498800537510604 -3.5 L 54.498800537510604 -0.5 L 52.3060408937553 -0.5 Z"/><text text-anchor="middle" pointer-events="none" font-size="8px" fill="#000000" x="39.7494002687553" y="3" transform="rotate(180 39.7494002687553 0)" font-family="sans-serif">AC…</text></g><g class="relationship" transform="translate(224.9445631588553 55.41308359004441) rotate(502.54422868862343)"><path class="outline" fill="#A5ABB6" stroke="none" d="M 25 0.5 L 46.625777513552094 0.5 L 46.625777513552094 -0.5 L 25 -0.5 Z M 92.1882775135521 0.5 L 113.81405502710419 0.5 L 113.81405502710419 3.5 L 120.81405502710419 0 L 113.81405502710419 -3.5 L 113.81405502710419 -0.5 L 92.1882775135521 -0.5 Z"/><text text-anchor="middle" pointer-events="none" font-size="8px" fill="#000000" x="69.4070275135521" y="3" transform="rotate(180 69.4070275135521 0)" font-family="sans-serif">ACTED_IN</text></g><g class="relationship" transform="translate(236.09136186148973 174.3336080331772) rotate(219.0921123913376)"><path class="outline" fill="#A5ABB6" stroke="none" d="M 25 0.5 L 25.028896793529356 0.5 L 25.028896793529356 -0.5 L 25 -0.5 Z M 66.14217804352936 0.5 L 66.17107483705871 0.5 L 66.17107483705871 3.5 L 73.17107483705871 0 L 66.17107483705871 -3.5 L 66.17107483705871 -0.5 L 66.14217804352936 -0.5 Z"/><text text-anchor="middle" pointer-events="none" font-size="8px" fill="#000000" x="45.585537418529356" y="3" transform="rotate(180 45.585537418529356 0)" font-family="sans-serif">ACTED…</text></g><g class="relationship" transform="translate(236.09136186148973 174.3336080331772) rotate(193.40541059988726)"><path class="outline" fill="#A5ABB6" stroke="none" d="M 25 0.5 L 38.944570154346124 0.5 L 38.944570154346124 -0.5 L 25 -0.5 Z M 84.50707015434612 0.5 L 98.45164030869225 0.5 L 98.45164030869225 3.5 L 105.45164030869225 0 L 98.45164030869225 -3.5 L 98.45164030869225 -0.5 L 84.50707015434612 -0.5 Z"/><text text-anchor="middle" pointer-events="none" font-size="8px" fill="#000000" x="61.725820154346124" y="3" transform="rotate(180 61.725820154346124 0)" font-family="sans-serif">ACTED_IN</text></g><g class="relationship" transform="translate(56.65455025000079 48.85132962087032) rotate(299.4274543298927)"><path class="outline" fill="#A5ABB6" stroke="none" d="M 25 0.5 L 34.78317546690341 0.5 L 34.78317546690341 -0.5 L 25 -0.5 Z M 80.3456754669034 0.5 L 90.12885093380682 0.5 L 90.12885093380682 3.5 L 97.12885093380682 0 L 90.12885093380682 -3.5 L 90.12885093380682 -0.5 L 80.3456754669034 -0.5 Z"/><text text-anchor="middle" pointer-events="none" font-size="8px" fill="#000000" x="57.56442546690341" y="3" font-family="sans-serif">ACTED_IN</text></g><g class="relationship" transform="translate(56.65455025000079 48.85132962087032) rotate(253.33724109510075)"><path class="outline" fill="#A5ABB6" stroke="none" d="M 25 0.5 L 33.41669631908851 0.5 L 33.41669631908851 -0.5 L 25 -0.5 Z M 78.97919631908852 0.5 L 87.39589263817702 0.5 L 87.39589263817702 3.5 L 94.39589263817702 0 L 87.39589263817702 -3.5 L 87.39589263817702 -0.5 L 78.97919631908852 -0.5 Z"/><text text-anchor="middle" pointer-events="none" font-size="8px" fill="#000000" x="56.19794631908851" y="3" transform="rotate(180 56.19794631908851 0)" font-family="sans-serif">ACTED_IN</text></g><g class="relationship" transform="translate(56.65455025000079 48.85132962087032) rotate(204.50535521678148)"><path class="outline" fill="#A5ABB6" stroke="none" d="M 25 0.5 L 33.46051786460165 0.5 L 33.46051786460165 -0.5 L 25 -0.5 Z M 79.02301786460166 0.5 L 87.4835357292033 0.5 L 87.4835357292033 3.5 L 94.4835357292033 0 L 87.4835357292033 -3.5 L 87.4835357292033 -0.5 L 79.02301786460166 -0.5 Z"/><text text-anchor="middle" pointer-events="none" font-size="8px" fill="#000000" x="56.24176786460165" y="3" transform="rotate(180 56.24176786460165 0)" font-family="sans-serif">ACTED_IN</text></g><g class="relationship" transform="translate(56.65455025000079 48.85132962087032) rotate(517.2655086645267)"><path class="outline" fill="#A5ABB6" stroke="none" d="M 25 0.5 L 34.52383060448261 0.5 L 34.52383060448261 -0.5 L 25 -0.5 Z M 80.08633060448261 0.5 L 89.61016120896522 0.5 L 89.61016120896522 3.5 L 96.61016120896522 0 L 89.61016120896522 -3.5 L 89.61016120896522 -0.5 L 80.08633060448261 -0.5 Z"/><text text-anchor="middle" pointer-events="none" font-size="8px" fill="#000000" x="57.30508060448261" y="3" transform="rotate(180 57.30508060448261 0)" font-family="sans-serif">ACTED_IN</text></g><g class="relationship" transform="translate(56.65455025000079 48.85132962087032) rotate(391.6254128518935)"><path class="outline" fill="#A5ABB6" stroke="none" d="M 25 0.5 L 34.34332595376786 0.5 L 34.34332595376786 -0.5 L 25 -0.5 Z M 79.90582595376786 0.5 L 89.24915190753572 0.5 L 89.24915190753572 3.5 L 96.24915190753572 0 L 89.24915190753572 -3.5 L 89.24915190753572 -0.5 L 79.90582595376786 -0.5 Z"/><text text-anchor="middle" pointer-events="none" font-size="8px" fill="#000000" x="57.12457595376786" y="3" font-family="sans-serif">ACTED_IN</text></g><g class="relationship" transform="translate(56.65455025000079 48.85132962087032) rotate(421.11612400752585)"><path class="outline" fill="#A5ABB6" stroke="none" d="M 25 0.5 L 28.10337019467397 0.5 L 28.10337019467397 -0.5 L 25 -0.5 Z M 73.66587019467397 0.5 L 76.76924038934794 0.5 L 76.76924038934794 3.5 L 83.76924038934794 0 L 76.76924038934794 -3.5 L 76.76924038934794 -0.5 L 73.66587019467397 -0.5 Z"/><text text-anchor="middle" pointer-events="none" font-size="8px" fill="#000000" x="50.88462019467397" y="3" font-family="sans-serif">ACTED_IN</text></g></g><g class="layer nodes"><g class="node" transform="translate(38.55769058780086,315.28222760176607)"><circle class="outline" cx="0" cy="0" r="25" fill="#57C7E3" stroke="#23b3d7" stroke-width="2px"/><text text-anchor="middle" pointer-events="none" font-family="sans-serif" dy="1.5625" font-size="25" fill="#2A2C34"/><text text-anchor="middle" pointer-events="none" font-family="sans-serif" dy="1.5625" font-size="25" fill="#2A2C34"/><text text-anchor="middle" pointer-events="none" x="0" y="0" font-size="10px" fill="#2A2C34" font-family="sans-serif"> Cloud</text><text text-anchor="middle" pointer-events="none" x="0" y="10" font-size="10px" fill="#2A2C34" font-family="sans-serif"> Atlas</text></g><g class="node" transform="translate(127.29193787170853,240.7021097009149)"><circle class="outline" cx="0" cy="0" r="25" fill="#F79767" stroke="#f36924" stroke-width="2px"/><text text-anchor="middle" pointer-events="none" font-family="sans-serif" dy="1.5625" font-size="25" fill="#FFFFFF"/><text text-anchor="middle" pointer-events="none" font-family="sans-serif" dy="1.5625" font-size="25" fill="#FFFFFF"/><text text-anchor="middle" pointer-events="none" x="0" y="0" font-size="10px" fill="#FFFFFF" font-family="sans-serif"> Hugo</text><text text-anchor="middle" pointer-events="none" x="0" y="10" font-size="10px" fill="#FFFFFF" font-family="sans-serif"> Weaving</text></g><g class="node" transform="translate(205.59432938306875,322.43588305916694)"><circle class="outline" cx="0" cy="0" r="25" fill="#57C7E3" stroke="#23b3d7" stroke-width="2px"/><text text-anchor="middle" pointer-events="none" font-family="sans-serif" dy="1.5625" font-size="25" fill="#2A2C34"/><text text-anchor="middle" pointer-events="none" font-family="sans-serif" dy="1.5625" font-size="25" fill="#2A2C34"/><text text-anchor="middle" pointer-events="none" x="0" y="0" font-size="10px" fill="#2A2C34" font-family="sans-serif"> V for</text><text text-anchor="middle" pointer-events="none" x="0" y="10" font-size="10px" fill="#2A2C34" font-family="sans-serif"> Vendetta</text></g><g class="node" transform="translate(159.89752928670154,112.42997476154662)"><circle class="outline" cx="0" cy="0" r="25" fill="#57C7E3" stroke="#23b3d7" stroke-width="2px"/><text text-anchor="middle" pointer-events="none" font-family="sans-serif" dy="1.5625" font-size="25" fill="#2A2C34"/><text text-anchor="middle" pointer-events="none" font-family="sans-serif" dy="1.5625" font-size="25" fill="#2A2C34"/><text text-anchor="middle" pointer-events="none" font-family="sans-serif" dy="1.5625" font-size="25" fill="#2A2C34"/><text text-anchor="middle" pointer-events="none" x="0" y="-5" font-size="10px" fill="#2A2C34" font-family="sans-serif"> The</text><text text-anchor="middle" pointer-events="none" x="0" y="5" font-size="10px" fill="#2A2C34" font-family="sans-serif"> Matrix</text><text text-anchor="middle" pointer-events="none" x="0" y="15" font-size="10px" fill="#2A2C34" font-family="sans-serif"> Revol…</text></g><g class="node" transform="translate(109.19400834404654,144.08973047924135)"><circle class="outline" cx="0" cy="0" r="25" fill="#57C7E3" stroke="#23b3d7" stroke-width="2px"/><text text-anchor="middle" pointer-events="none" font-family="sans-serif" dy="1.5625" font-size="25" fill="#2A2C34"/><text text-anchor="middle" pointer-events="none" font-family="sans-serif" dy="1.5625" font-size="25" fill="#2A2C34"/><text text-anchor="middle" pointer-events="none" font-family="sans-serif" dy="1.5625" font-size="25" fill="#2A2C34"/><text text-anchor="middle" pointer-events="none" x="0" y="-5" font-size="10px" fill="#2A2C34" font-family="sans-serif"> The</text><text text-anchor="middle" pointer-events="none" x="0" y="5" font-size="10px" fill="#2A2C34" font-family="sans-serif"> Matrix</text><text text-anchor="middle" pointer-events="none" x="0" y="15" font-size="10px" fill="#2A2C34" font-family="sans-serif"> Reloa…</text></g><g class="node" transform="translate(224.9445631588553,55.41308359004441)"><circle class="outline" cx="0" cy="0" r="25" fill="#F79767" stroke="#f36924" stroke-width="2px"/><text text-anchor="middle" pointer-events="none" font-family="sans-serif" dy="1.5625" font-size="25" fill="#FFFFFF"/><text text-anchor="middle" pointer-events="none" font-family="sans-serif" dy="1.5625" font-size="25" fill="#FFFFFF"/><text text-anchor="middle" pointer-events="none" x="0" y="0" font-size="10px" fill="#FFFFFF" font-family="sans-serif"> Laurence</text><text text-anchor="middle" pointer-events="none" x="0" y="10" font-size="10px" fill="#FFFFFF" font-family="sans-serif"> Fishbur…</text></g><g class="node" transform="translate(236.09136186148973,174.3336080331772)"><circle class="outline" cx="0" cy="0" r="25" fill="#F79767" stroke="#f36924" stroke-width="2px"/><text text-anchor="middle" pointer-events="none" font-family="sans-serif" dy="1.5625" font-size="25" fill="#FFFFFF"/><text text-anchor="middle" pointer-events="none" x="0" y="5" font-size="10px" fill="#FFFFFF" font-family="sans-serif"> Carrie-A…</text></g><g class="node" transform="translate(116.65903840028112,-57.520272003975364)"><circle class="outline" cx="0" cy="0" r="25" fill="#57C7E3" stroke="#23b3d7" stroke-width="2px"/><text text-anchor="middle" pointer-events="none" font-family="sans-serif" dy="1.5625" font-size="25" fill="#2A2C34"/><text text-anchor="middle" pointer-events="none" x="0" y="5" font-size="10px" fill="#2A2C34" font-family="sans-serif"> Somethi…</text></g><g class="node" transform="translate(56.65455025000079,48.85132962087032)"><circle class="outline" cx="0" cy="0" r="25" fill="#F79767" stroke="#f36924" stroke-width="2px"/><text text-anchor="middle" pointer-events="none" font-family="sans-serif" dy="1.5625" font-size="25" fill="#FFFFFF"/><text text-anchor="middle" pointer-events="none" font-family="sans-serif" dy="1.5625" font-size="25" fill="#FFFFFF"/><text text-anchor="middle" pointer-events="none" x="0" y="0" font-size="10px" fill="#FFFFFF" font-family="sans-serif"> Keanu</text><text text-anchor="middle" pointer-events="none" x="0" y="10" font-size="10px" fill="#FFFFFF" font-family="sans-serif"> Reeves</text></g><g class="node" transform="translate(22.419223443976673,-65.5310185686638)"><circle class="outline" cx="0" cy="0" r="25" fill="#57C7E3" stroke="#23b3d7" stroke-width="2px"/><text text-anchor="middle" pointer-events="none" font-family="sans-serif" dy="1.5625" font-size="25" fill="#2A2C34"/><text text-anchor="middle" pointer-events="none" font-family="sans-serif" dy="1.5625" font-size="25" fill="#2A2C34"/><text text-anchor="middle" pointer-events="none" x="0" y="0" font-size="10px" fill="#2A2C34" font-family="sans-serif"> The</text><text text-anchor="middle" pointer-events="none" x="0" y="10" font-size="10px" fill="#2A2C34" font-family="sans-serif"> Replac…</text></g><g class="node" transform="translate(-52.06620813966659,-0.7078471835053712)"><circle class="outline" cx="0" cy="0" r="25" fill="#57C7E3" stroke="#23b3d7" stroke-width="2px"/><text text-anchor="middle" pointer-events="none" font-family="sans-serif" dy="1.5625" font-size="25" fill="#2A2C34"/><text text-anchor="middle" pointer-events="none" font-family="sans-serif" dy="1.5625" font-size="25" fill="#2A2C34"/><text text-anchor="middle" pointer-events="none" x="0" y="0" font-size="10px" fill="#2A2C34" font-family="sans-serif"> Johnny</text><text text-anchor="middle" pointer-events="none" x="0" y="10" font-size="10px" fill="#2A2C34" font-family="sans-serif"> Mnemo…</text></g><g class="node" transform="translate(-55.50718387873589,95.84895409812555)"><circle class="outline" cx="0" cy="0" r="25" fill="#57C7E3" stroke="#23b3d7" stroke-width="2px"/><text text-anchor="middle" pointer-events="none" font-family="sans-serif" dy="1.5625" font-size="25" fill="#2A2C34"/><text text-anchor="middle" pointer-events="none" font-family="sans-serif" dy="1.5625" font-size="25" fill="#2A2C34"/><text text-anchor="middle" pointer-events="none" font-family="sans-serif" dy="1.5625" font-size="25" fill="#2A2C34"/><text text-anchor="middle" pointer-events="none" x="0" y="-5" font-size="10px" fill="#2A2C34" font-family="sans-serif"> The</text><text text-anchor="middle" pointer-events="none" x="0" y="5" font-size="10px" fill="#2A2C34" font-family="sans-serif"> Devil's</text><text text-anchor="middle" pointer-events="none" x="0" y="15" font-size="10px" fill="#2A2C34" font-family="sans-serif"> Advoc…</text></g></g></svg>